<?xml version="1.0" encoding="utf-8"?>
<!-- Generator: Adobe Illustrator 27.5.0, SVG Export Plug-In . SVG Version: 6.00 Build 0)  -->
<svg version="1.1" xmlns="http://www.w3.org/2000/svg" xmlns:xlink="http://www.w3.org/1999/xlink" x="0px" y="0px"
	 viewBox="0 0 500 500" style="enable-background:new 0 0 500 500;" xml:space="preserve">
<g id="BACKGROUND">
	<rect style="fill:#FFFFFF;" width="500" height="500"/>
</g>
<g id="OBJECTS">
	<g>
		<circle style="fill:#D6E7F2;" cx="353.81" cy="143.269" r="55.294"/>
		<path style="fill:#D6E7F2;" d="M103.509,405.645h275.093c0,0-97.058-38.788-176.063-42.511
			C130.934,359.759,103.509,405.645,103.509,405.645z"/>
		<path style="fill:#D6E7F2;" d="M340.333,395.85c0,0,0.094-17.854-5.283-26.028c0,0,5.593,4.41,8.174,20.812
			c0,0,2.366-26.297,14.412-36.353c0,0-7.314,13.498-9.68,36.353c0,0,3.064-8.766,12.503-13.068c0,0-9.491,9.175-11.212,20.721
			L340.333,395.85z"/>
		<path style="fill:#D6E7F2;" d="M115.44,394.931c0,0-10.074-14.815-20.148-16.889c0,0,10.148,1.824,15.481,6.399
			c0,0-9.778-15.214-3.111-28.325c0,0-2.444,18.099,7.778,27.716c0,0-1.778-10.879,2-15.853c0,0-2,12.749,2.667,22.887
			L115.44,394.931z"/>
		<g>
			
				<ellipse transform="matrix(0.0311 -0.9995 0.9995 0.0311 -137.6421 583.2505)" style="fill:#D6E7F2;" cx="232.007" cy="362.618" rx="14.667" ry="14.667"/>
			<circle style="fill:#D6E7F2;" cx="217.145" cy="362.618" r="7.075"/>
			
				<ellipse transform="matrix(0.1071 -0.9942 0.9942 0.1071 -142.83 572.2562)" style="fill:#D6E7F2;" cx="247.205" cy="365.653" rx="7.075" ry="7.075"/>
			<path style="fill:#D6E7F2;" d="M212.085,363.635c0,2.28-1.848,4.128-4.128,4.128c-2.28,0-4.128-1.848-4.128-4.128
				s1.848-4.128,4.128-4.128C210.237,359.507,212.085,361.355,212.085,363.635z"/>
			<path style="fill:#D6E7F2;" d="M260.186,370.45c0,2.28-1.848,4.128-4.128,4.128c-2.28,0-4.128-1.848-4.128-4.128
				c0-2.28,1.848-4.128,4.128-4.128C258.338,366.322,260.186,368.17,260.186,370.45z"/>
		</g>
	</g>
	<g>
		<path style="fill:#FFFFFF;" d="M367.745,164.547l-5.993,0.213c4.575-7.553,0.638-14.362,0.638-14.362s1.33-6.17-4.362-7.128
			l-4.91,4.282l-12.537,10.932c0,0-13.937,1.064-16.064,2.021c-2.128,0.958-17.447,16.49-17.447,16.49l-22.802,13.015
			c0,0,4.385,4.012,10.028,6.639l-14.911,9.886l2.97,2.88l-15.25,6.554l2.947,4.937h-13.778c0,0-25.578,2.768-30.873,3.436
			c-14.405,1.82-35.558,6.724-49.812,10.259c-12.202,3.026-22.87,10.387-30.032,20.72c-2,2.885-4.165,6.226-6.471,10.082
			c-11.83,19.784-24.682,57.236-24.895,61.279l5.745-2.553c0,0-4.043,15.745,1.277,23.405c5.319,7.66,15.958-1.277,18.937-14.256
			l0.638,4.894c0,0,6.596-17.235,7.234-31.916c0.153-3.511,0.072-7.106-0.022-10.686l0.595,0.287
			c0.859,4.625,2.713,10.731,6.732,16.285c7.802,10.78,6.951,26.654,0,38.222l-0.968,18.376l9.053,22.128h18.866
			c0,0-0.213-6.099-8.795-9.362l-5.674-20.71c0,0-0.086-3.218,2.234-9.08l0.909,0.396l2.531,12.514l10.919,23.121h17.921
			c-2.083-8.227-9.548-8.227-9.548-8.227s-8.227-18.44-8.369-22.554c-0.142-4.114,3.688-12.483,3.688-12.483
			c17.2-12.299,28.491-35.137,31.398-41.486l0.019-0.024l3.799,0.67c1.438,0.526,3.254,1.171,5.271,1.845
			c9.464,4.188,23.141,8.383,37.657,6.659c1.089,0.095,2.033,0.174,2.802,0.237c-0.962,5.976-0.376,10.691-0.376,10.691h2.979
			v20.841l2.766-2.979l1.702,35.746l2.128,15.107h21.065c-0.327-1.637-0.87-2.962-1.529-4.043h0.342h3.721h14.771
			c-0.284-7.234-9.864-10.424-9.864-10.424l-1.201-8.3c0,0,0.092-2.581,0.269-6.587l-0.159,0.523l3.179-41.14
			c0,0,1.161-13.765,6.522-17.525c3.089-2.166,5.168-5.697,6.38-8.306l1.649,1.214c5-5.889,9.778-22.889,9.778-22.889l1.889,1
			l2.029-13.581l1.515,1.331c5.39-11.064,9.362-29.93,9.362-29.93l3.262,3.121l2.695-16.454l2.27,2.837
			c2.553-7.943-0.142-19.15-0.142-19.15l4.397,2.27c0.851-6.241-4.114-23.263-4.114-23.263l2.411-1.348
			C369.944,174.05,367.745,164.547,367.745,164.547z M289.303,373.064c0,0,0.187-4.533,0.473-10.446l4.658,21.823
			c-2.208-1.304-4.28-1.377-4.28-1.377L289.303,373.064z"/>
		<g>
			<g>
				<path style="fill:#1D3244;" d="M317.551,247.457c0.849,1.504,1.804,2.896,2.863,4.198c1.084,1.284,2.228,2.493,3.44,3.63
					c1.213,1.136,2.515,2.169,3.802,3.196c1.298,0.99,2.648,2.017,3.888,2.916l0.002,0.001l-3.021,0.792l2.412-5.106l1.155-2.444
					l2.031,1.784l5.815,5.107l-3.173,0.638c2.167-4.547,3.835-9.463,5.327-14.41c0.744-2.479,1.427-4.982,2.077-7.493
					c0.644-2.507,1.26-5.05,1.801-7.553l0.769-3.558l2.622,2.509l3.262,3.121l-3.407,1.139l2.698-16.454l0.738-4.499l2.848,3.56
					l2.269,2.837l-3.513,0.646c0.416-1.37,0.687-2.825,0.85-4.316c0.134-1.501,0.173-3.028,0.132-4.566
					c-0.057-1.539-0.185-3.086-0.38-4.627c-0.195-1.527-0.457-3.112-0.782-4.546l-0.965-4.267l3.862,1.994l4.397,2.27l-2.934,1.525
					c0.173-1.559,0.016-3.505-0.24-5.372c-0.259-1.888-0.596-3.794-0.993-5.696c-0.794-3.799-1.751-7.624-2.814-11.355l-0.44-1.546
					l1.394-0.784l2.427-1.364c0.687-0.514,1.426-0.936,2.08-1.509c1.377-1.069,2.534-2.339,3.528-3.693
					c0.986-1.364,1.683-2.892,2.114-4.479c0.182-0.8,0.348-1.608,0.383-2.421c0.037-0.406,0.027-0.81,0.016-1.207
					c-0.014-0.195-0.017-0.399-0.043-0.582c-0.015-0.173-0.054-0.41-0.065-0.471l2.037,1.561l-5.993,0.212l-3.565,0.126l1.769-3.186
					c0.533-0.96,1.04-1.934,1.337-2.973c0.347-1.024,0.507-2.096,0.563-3.169c0.059-1.075-0.037-2.163-0.265-3.226
					c-0.114-0.531-0.259-1.055-0.433-1.566c-0.165-0.485-0.413-1.057-0.582-1.375l-0.296-0.556l0.052-0.778
					c0.02-0.293,0.07-0.592,0.081-0.877c-0.025-0.271,0.018-0.567-0.049-0.813c-0.047-0.531-0.244-0.971-0.481-1.387
					c-0.246-0.41-0.59-0.778-1.025-1.088c-0.223-0.149-0.453-0.296-0.703-0.413c-0.219-0.118-0.569-0.237-0.666-0.267l1.793-0.44
					l-17.449,15.211l-0.5,0.436l-0.667,0.053c-3.311,0.263-6.647,0.566-9.932,0.948c-1.621,0.199-3.316,0.404-4.764,0.718
					c-0.896,0.216-0.596,0.115-1.402,0.724c-0.587,0.477-1.207,1.019-1.812,1.569c-2.438,2.204-4.838,4.546-7.224,6.878
					c-2.384,2.339-4.757,4.705-7.104,7.077l-0.195,0.197l-0.238,0.136l-22.804,13.011l0.361-3.21l0.001,0.001
					c2.281,1.508,4.668,3.125,7.057,4.484c2.388,1.402,4.853,2.583,7.372,3.348c0.635,0.195,1.252,0.314,1.914,0.449
					c0.678,0.09,1.359,0.23,2.038,0.284c1.359,0.132,2.727,0.181,4.069,0.054c1.336-0.147,2.66-0.44,3.836-1.072
					c1.184-0.603,2.216-1.612,2.573-3.097c0.319,1.501-0.439,3.216-1.611,4.341c-1.168,1.167-2.648,1.989-4.179,2.5
					c-1.534,0.539-3.127,0.801-4.712,0.917c-0.796,0.072-1.585,0.088-2.377,0.072c-0.798-0.045-1.651-0.097-2.452-0.227
					c-3.249-0.501-6.238-1.739-8.943-3.294c-1.35-0.79-2.644-1.655-3.856-2.618c-1.218-0.981-2.35-1.959-3.434-3.195l-0.002-0.002
					l-2.038-1.841l2.399-1.369l22.8-13.018l-0.433,0.333c2.37-2.396,4.746-4.767,7.149-7.126c2.41-2.357,4.81-4.702,7.347-6.998
					c0.636-0.577,1.277-1.141,1.991-1.722l0.556-0.437c0.171-0.141,0.543-0.363,0.816-0.523c0.295-0.185,0.606-0.247,0.914-0.362
					c0.283-0.084,0.488-0.122,0.736-0.183c1.832-0.393,3.473-0.576,5.179-0.791c3.378-0.393,6.723-0.698,10.098-0.967l-1.168,0.489
					l17.445-15.216l0.804-0.701l0.989,0.261c0.365,0.096,0.551,0.167,0.803,0.261c0.234,0.09,0.462,0.19,0.683,0.299
					c0.446,0.213,0.87,0.473,1.284,0.758c0.819,0.581,1.564,1.346,2.114,2.253c0.542,0.9,0.93,1.927,1.04,2.931
					c0.104,0.51,0.068,0.992,0.088,1.488c-0.016,0.483-0.084,0.947-0.132,1.42l-0.244-1.333c0.423,0.785,0.651,1.374,0.901,2.07
					c0.231,0.674,0.42,1.357,0.568,2.05c0.297,1.384,0.424,2.812,0.35,4.237c-0.07,1.421-0.292,2.849-0.742,4.2
					c-0.401,1.371-1.045,2.637-1.735,3.858l-1.796-3.06l5.993-0.214l1.701-0.061l0.336,1.622c0.084,0.404,0.111,0.638,0.144,0.937
					c0.038,0.288,0.046,0.559,0.064,0.838c0.018,0.551,0.026,1.099-0.018,1.639c-0.051,1.087-0.259,2.148-0.505,3.196
					c-0.557,2.077-1.476,4.056-2.711,5.774c-1.24,1.708-2.679,3.257-4.302,4.523c-0.78,0.675-1.689,1.219-2.533,1.826l-2.536,1.429
					l0.954-2.329c1.104,3.874,2.069,7.726,2.895,11.666c0.411,1.967,0.766,3.958,1.044,5.986c0.261,2.043,0.493,4.071,0.24,6.45
					l-0.307,2.881l-2.627-1.355l-4.398-2.269l2.897-2.273c0.387,1.711,0.646,3.311,0.863,4.981c0.21,1.657,0.349,3.326,0.412,5.009
					c0.046,1.685,0.006,3.385-0.148,5.096c-0.186,1.714-0.497,3.44-1.023,5.157l-1.116,3.642l-2.398-2.996l-2.27-2.837l3.585-0.939
					l-2.693,16.455l-0.622,3.802l-2.785-2.663l-3.263-3.12l3.392-1.049c-0.565,2.616-1.183,5.163-1.84,7.729
					c-0.661,2.558-1.356,5.108-2.117,7.646c-1.532,5.073-3.224,10.113-5.563,15.029l-1.149,2.415l-2.024-1.777l-5.816-5.105
					l3.185-0.661l-2.411,5.107l-1.046,2.215l-1.975-1.423l-0.003-0.002c-0.781-0.571-1.433-1.122-2.087-1.74
					c-0.658-0.596-1.274-1.234-1.869-1.891c-1.207-1.295-2.276-2.716-3.297-4.153c-1.018-1.441-1.901-2.98-2.669-4.556
					C318.503,250.799,317.935,249.131,317.551,247.457z"/>
			</g>
			<g>
				<path style="fill:#1D3244;" d="M296.268,198.687l-14.844,10.137l-0.455-3.535l3.972,1.418l4.793,1.712l-4.676,2.009
					l-17.163,7.376l0.568-3.306l5.674,5.248l3.678,3.403l-5.024,0.065c-8.84,0.115-17.743,0.521-26.59,1.133
					c-4.428,0.304-8.848,0.696-13.257,1.147c-4.418,0.458-8.8,0.971-13.154,1.677c-8.729,1.412-17.433,3.24-26.105,5.188
					c-4.336,0.978-8.665,1.997-12.988,3.046c-2.14,0.53-4.377,1.041-6.401,1.617c-2.051,0.613-4.087,1.297-6.044,2.174
					c-7.866,3.405-14.813,8.892-19.953,15.752c-1.294,1.675-2.425,3.631-3.631,5.459l-3.572,5.564
					c-2.242,3.764-4.32,7.635-6.227,11.625c-3.87,7.94-7.257,16.153-10.467,24.419c-1.577,4.145-3.128,8.303-4.554,12.495
					c-0.714,2.094-1.419,4.194-2.066,6.295c-0.342,1.052-0.627,2.097-0.934,3.145c-0.276,1.015-0.555,2.142-0.657,2.834
					l-2.809-1.933l5.745-2.553l3.669-1.631l-0.919,3.956c-0.949,4.085-1.505,8.482-1.376,12.66c0.066,2.093,0.318,4.169,0.926,6.037
					c0.309,0.924,0.662,1.828,1.16,2.592c0.441,0.828,1.016,1.432,1.618,1.849c1.171,0.837,2.698,0.753,4.334-0.046
					c1.615-0.799,3.117-2.193,4.393-3.752c2.562-3.164,4.327-7.088,5.272-11.135l2.507-10.738l1.425,10.927l0.636,4.879l0.002,0.014
					l-3.851-0.456c1.976-5.774,3.676-11.771,5.02-17.75c0.664-2.997,1.219-6.01,1.6-9.028c0.215-1.509,0.332-3.014,0.452-4.522
					c0.069-1.527,0.137-3.055,0.148-4.6c0.145-6.169-0.209-12.476,0.419-18.85c0.319-3.176,0.882-6.376,1.973-9.421
					c1.076-3.037,2.746-5.903,5.023-8.095c-3.395,5.384-4.078,11.582-4.14,17.676c-0.055,6.132,0.496,12.341,0.649,18.683
					c0.037,1.584,0.015,3.183-0.01,4.784c-0.077,1.615-0.157,3.232-0.335,4.829c-0.349,3.197-0.878,6.353-1.538,9.471
					c-0.691,3.11-1.473,6.192-2.409,9.225c-0.931,3.044-1.906,6.029-3.115,9.028l-2.871,7.124l-0.98-7.58l-0.002-0.014l-0.637-4.879
					l3.932,0.189c-1.082,4.598-3.035,9.005-6.072,12.771c-1.539,1.859-3.335,3.608-5.716,4.806c-1.189,0.586-2.555,1.019-4.05,1.052
					c-1.49,0.06-3.073-0.431-4.298-1.275c-1.229-0.839-2.169-1.952-2.789-3.073c-0.708-1.11-1.171-2.295-1.563-3.474
					c-0.762-2.372-1.032-4.762-1.111-7.106c-0.129-4.716,0.441-9.223,1.5-13.795l2.749,2.325l-5.745,2.553l-3.217,1.43l0.408-3.363
					c0.185-1.522,0.505-2.548,0.795-3.687c0.32-1.091,0.622-2.197,0.969-3.264c0.665-2.158,1.379-4.285,2.104-6.41
					c1.446-4.249,3.011-8.445,4.604-12.632c3.244-8.352,6.66-16.64,10.603-24.731c1.938-4.054,4.078-8.048,6.398-11.941l3.652-5.691
					c1.25-1.891,2.349-3.808,3.779-5.668c5.553-7.412,13.06-13.342,21.561-17.021c2.114-0.946,4.313-1.688,6.53-2.348
					c2.265-0.641,4.377-1.118,6.563-1.66c4.341-1.053,8.691-2.077,13.051-3.061c8.724-1.959,17.479-3.8,26.354-5.236
					c4.447-0.721,8.924-1.245,13.373-1.706c4.459-0.456,8.922-0.852,13.388-1.158c8.94-0.618,17.857-1.026,26.846-1.143
					l-1.345,3.468l-5.674-5.248l-2.26-2.09l2.828-1.215l17.163-7.376l0.117,3.721l-3.972-1.418l-3.698-1.321l3.243-2.215
					l14.844-10.137L296.268,198.687z"/>
			</g>
			<g>
				<path style="fill:#1D3244;" d="M149.493,288.495c0.003,1.208,0.102,2.573,0.258,3.862c0.149,1.306,0.368,2.607,0.636,3.896
					c0.543,2.576,1.307,5.102,2.307,7.518c0.999,2.415,2.227,4.732,3.739,6.835l1.172,1.755l0.602,0.912l0.522,0.957
					c0.732,1.261,1.284,2.605,1.838,3.946c1.993,5.446,2.595,11.327,1.891,17.009c-0.638,5.699-2.522,11.228-5.417,16.206
					l0.283-0.925l0,0l-0.968,18.376l-0.146-0.862l9.053,22.128l-1.851-1.243h18.866l-1.999,2.07c0,0.04-0.011-0.103-0.027-0.179
					c-0.011-0.089-0.035-0.19-0.057-0.29c-0.042-0.199-0.104-0.409-0.173-0.614c-0.139-0.413-0.317-0.826-0.538-1.221
					c-0.432-0.796-1.013-1.529-1.682-2.196c-0.676-0.663-1.467-1.237-2.309-1.753c-0.42-0.26-0.882-0.469-1.318-0.711l-1.403-0.599
					l-0.964-0.412l-0.255-0.929l-5.674-20.71l-0.066-0.242l-0.004-0.229c-0.004-0.215,0.005-0.327,0.009-0.468l0.025-0.391
					c0.018-0.255,0.041-0.505,0.075-0.743c0.053-0.49,0.139-0.955,0.219-1.426c0.174-0.932,0.396-1.839,0.645-2.732
					c0.519-1.776,1.122-3.512,1.845-5.181c1.415-3.356,3.156-6.525,5.076-9.556c1.91-3.03,4.027-5.946,6.221-8.712
					c2.175-2.79,4.425-5.494,6.638-8.199c2.223-2.701,4.399-5.398,6.426-8.168c2.036-2.763,3.897-5.613,5.368-8.619
					c1.482-2.997,2.606-6.134,3.228-9.38c0.574-3.256,0.651-6.586,0.406-9.917l-0.469-6.37l4.011,4.923l3.119,3.828l0.001,0.002
					l-3.361,0.415l1.544-3.842c0.499-1.318,0.996-2.649,1.416-4.015c0.419-1.368,0.701-2.766,0.958-4.196
					c0.225-1.434,0.307-2.89,0.305-4.405c0.573,1.386,1.011,2.876,1.217,4.403c0.224,1.524,0.299,3.085,0.22,4.634
					c-0.063,1.551-0.225,3.108-0.56,4.627c-0.335,1.538-0.765,2.975-1.478,4.492l-1.352,2.881l-2.009-2.466l-0.001-0.002
					l-3.119-3.828l3.542-1.447c0.276,3.655,0.192,7.365-0.457,11.017c-0.695,3.643-1.957,7.152-3.578,10.426
					c-1.612,3.288-3.604,6.325-5.719,9.197c-2.109,2.883-4.335,5.639-6.563,8.345c-2.222,2.716-4.452,5.397-6.584,8.132
					c-2.157,2.722-4.159,5.484-5.985,8.379c-1.827,2.883-3.467,5.877-4.773,8.977c-0.67,1.545-1.214,3.125-1.679,4.709
					c-0.22,0.794-0.415,1.589-0.563,2.378c-0.066,0.393-0.141,0.788-0.18,1.17c-0.028,0.195-0.044,0.381-0.057,0.563
					c-0.018,0.169-0.021,0.397-0.025,0.452l-0.07-0.47l5.674,20.71l-1.218-1.341l1.701,0.727c0.551,0.296,1.115,0.56,1.652,0.89
					c1.077,0.657,2.118,1.411,3.051,2.325c0.926,0.918,1.758,1.964,2.4,3.147c0.326,0.588,0.599,1.212,0.818,1.865
					c0.109,0.328,0.206,0.66,0.282,1.011c0.039,0.174,0.077,0.348,0.104,0.538c0.031,0.201,0.054,0.337,0.073,0.659l0.122,2.07
					h-2.121h-18.866h-1.343l-0.509-1.243l-9.053-22.128l-0.17-0.415l0.023-0.448l0.968-18.376v0l0.029-0.499l0.254-0.426
					c2.643-4.436,4.424-9.446,5.055-14.606c0.701-5.148,0.195-10.446-1.511-15.285c-0.48-1.186-0.949-2.382-1.582-3.493
					l-0.447-0.848l-0.521-0.802l-1.085-1.665c-1.65-2.355-2.97-4.915-4.029-7.557c-1.06-2.644-1.852-5.379-2.405-8.154
					c-0.273-1.389-0.492-2.787-0.637-4.197c-0.151-1.424-0.247-2.79-0.232-4.314L149.493,288.495z"/>
			</g>
			<g>
				<path style="fill:#1D3244;" d="M319.872,276.962c-0.415,3.614-1.345,7.183-2.602,10.634c-1.257,3.456-2.903,6.788-4.872,9.948
					c-1.936,3.185-4.347,6.102-7.063,8.714l-2.095,1.906l-2.281,1.69c-0.382,0.279-0.767,0.553-1.159,0.818l-1.232,0.71
					c-0.818,0.478-1.643,0.941-2.476,1.382l-0.001,0l1.022-1.437c-0.821,5.111-1.599,10.248-2.314,15.377
					c-0.708,5.129-1.384,10.275-1.811,15.371c-0.398,5.143-0.685,10.331-0.957,15.513l-0.73,15.559l-0.005-0.252l0.851,10
					l-1.935-1.829c0.483,0.027,0.77,0.069,1.128,0.131c0.341,0.056,0.671,0.136,1,0.218c0.655,0.174,1.294,0.401,1.914,0.677
					c1.235,0.557,2.406,1.321,3.38,2.295c0.959,0.972,1.817,2.078,2.373,3.294c0.339,0.589,0.51,1.222,0.759,1.836
					c0.2,0.622,0.336,1.252,0.5,1.879l0.625,2.392h-2.586h-21.064h-1.738l-0.242-1.721l-2.128-15.107l-0.013-0.092l-0.004-0.092
					l-1.702-35.746l3.463,1.266l-2.766,2.979l-3.466,3.732v-5.093v-20.841l2,2h-2.979h-1.786l-0.199-1.752l0-0.001
					c-0.436-2.494-0.439-4.816-0.262-7.217c0.19-2.378,0.64-4.742,1.334-7.034c0.639-2.305,1.693-4.505,2.931-6.54
					c1.26-2.032,2.922-3.811,4.79-5.213c-0.928,2.18-1.854,4.179-2.461,6.31c-0.647,2.098-1.172,4.195-1.523,6.335
					c-0.347,2.137-0.578,4.285-0.708,6.446c-0.127,2.137-0.148,4.382-0.132,6.417v0l-1.984-1.752h2.979h2v2v20.841l-3.466-1.361
					l2.766-2.979l3.237-3.486l0.226,4.752l1.702,35.746l-0.017-0.184l2.128,15.107l-1.98-1.721h21.064l-1.961,2.392
					c-0.132-0.469-0.23-0.954-0.376-1.412c-0.189-0.432-0.299-0.915-0.542-1.308c-0.381-0.86-0.961-1.563-1.581-2.208
					c-0.631-0.638-1.397-1.134-2.227-1.512c-0.417-0.186-0.851-0.34-1.293-0.458c-0.222-0.054-0.444-0.11-0.663-0.145
					c-0.201-0.04-0.478-0.067-0.562-0.074l-1.794-0.166l-0.142-1.664l-0.851-10l-0.011-0.131l0.006-0.121l0.732-15.601
					c0.274-5.202,0.561-10.397,0.965-15.622c0.442-5.267,1.124-10.435,1.837-15.605c0.72-5.169,1.499-10.313,2.327-15.469
					l0.141-0.88l0.881-0.558l0.001,0c0.707-0.493,1.422-0.965,2.145-1.422l1.079-0.692l1.014-0.789l2.049-1.545l1.932-1.699
					c2.542-2.302,4.935-4.821,7.045-7.605c2.137-2.76,4.07-5.715,5.812-8.813C316.979,283.569,318.565,280.347,319.872,276.962z"/>
			</g>
			<path style="fill:none;stroke:#1D3244;stroke-width:4;stroke-miterlimit:10;" d="M202.539,299.976l4.208,5l3.229-6.49
				l2.185,3.268l3.522-3.268c0,0,25.656,18.078,53.468,13.241"/>
			<path style="fill:none;stroke:#1D3244;stroke-width:4;stroke-miterlimit:10;" d="M220.244,301.303
				c0,0-12.044,28.801-32.15,43.179c0,0-3.83,8.369-3.688,12.483c0.142,4.114,8.369,22.554,8.369,22.554s7.465,0,9.548,8.227
				h-17.921l-10.919-23.121l-2.996-14.811"/>
			<path style="fill:none;stroke:#1D3244;stroke-width:4;stroke-miterlimit:10;" d="M336.576,261.287l-2.235,13.547l-2.128-1.136
				c0,0,1.702,11.916-16.454,30.215c0,0-4.397,3.404-6.667,16.313s-3.546,48.796-3.546,48.796l1.201,8.3c0,0,9.58,3.19,9.864,10.424
				h-18.493"/>
			
				<line style="fill:none;stroke:#1D3244;stroke-width:4;stroke-miterlimit:10;" x1="293.249" y1="383.832" x2="289.886" y2="360.396"/>
			<g>
				<path style="fill:#1D3244;" d="M309.634,181.139c-0.632,1.29-1.595,2.411-2.585,3.466c-1.004,1.05-2.083,2.028-3.194,2.964
					c-1.112,0.935-2.257,1.829-3.427,2.693c-1.177,0.866-2.344,1.692-3.607,2.511l0.347-3.373l0,0
					c0.704,0.729,1.714,1.511,2.685,2.133c0.996,0.638,2.061,1.168,3.186,1.552c1.124,0.371,2.314,0.592,3.53,0.546
					c1.217-0.033,2.447-0.354,3.604-0.915c-0.969,0.837-2.136,1.516-3.434,1.9c-1.294,0.399-2.687,0.516-4.065,0.435
					c-1.377-0.092-2.745-0.368-4.064-0.788c-0.66-0.21-1.312-0.451-1.953-0.727c-0.656-0.29-1.241-0.554-1.948-0.98v0l-2.637-2.317
					l2.983-1.056c1.271-0.45,2.595-0.98,3.877-1.522c1.289-0.547,2.564-1.13,3.816-1.759c1.252-0.63,2.481-1.304,3.658-2.064
					C307.574,183.067,308.724,182.241,309.634,181.139z"/>
			</g>
			<path style="fill:#1D3244;" d="M327.868,166.355c0,0,1.596-3.83,7.394-4.255C335.262,162.1,334.411,166.089,327.868,166.355z"/>
			<path style="fill:#1D3244;" d="M353.118,147.551l2.676,2.687l6.596,0.16c0,0,1.33-6.17-4.362-7.128L353.118,147.551z"/>
			<g>
				<path style="fill:#1D3244;" d="M283.384,227.533c1.007,2.716,2.255,5.332,3.716,7.772c1.465,2.416,3.2,4.719,5.28,6.254l0,0
					l-2.415,0.635l1.778-5.185l0,0l1.433-3.426l1.338,3.264c0.688,1.679,1.492,3.399,2.324,5.067
					c0.839,1.674,1.733,3.323,2.682,4.943c1.91,3.231,4.053,6.343,6.641,9.12c-2.932-2.412-5.518-5.264-7.88-8.274
					c-1.176-1.511-2.305-3.061-3.384-4.65c-1.079-1.598-2.104-3.194-3.089-4.909l2.772-0.162l0,0l-1.778,5.185l-0.749,2.186
					l-1.666-1.551l-0.001,0c-2.22-2.361-3.546-5.096-4.634-7.837C284.694,233.207,283.911,230.387,283.384,227.533z"/>
			</g>
			<g>
				<path style="fill:#1D3244;" d="M315.384,174.385c-0.662,3.06-1.139,6.153-1.387,9.221l0,0.001l-1.493-1.045l3.851-2.283l0,0
					l1.459-0.855l0.047,1.633c0.077,2.656,0.288,5.359,0.606,8.028c0.33,2.673,0.779,5.338,1.508,7.949
					c-1.045-2.503-1.828-5.123-2.491-7.767c-0.653-2.653-1.198-5.314-1.616-8.047l1.506,0.778l0,0l-3.851,2.283l-2.048,1.214
					l0.555-2.258l0-0.001C312.956,180.183,314.088,177.242,315.384,174.385z"/>
			</g>
			<g>
				<path style="fill:#1D3244;" d="M330.475,194.691l4.782,8.058l-1.818-0.002l2.815-6.13l0.856-1.864l0.915,1.775
					c2.517,4.883,5.161,9.732,8.026,14.449c-3.417-4.344-6.632-8.845-9.751-13.437l1.771-0.089l-2.815,6.13l-1.053,2.294
					l-0.765-2.296L330.475,194.691z"/>
			</g>
			<g>
				<path style="fill:#1D3244;" d="M265.268,307.571c0.85-2.226,1.725-4.443,2.638-6.652c0.92-2.212,1.846-4.404,2.961-6.61
					l1.753,2.234l-5.926,2.074l-3.431,1.201l1.524-3.124c0.541-1.109,1.094-2.147,1.671-3.198c0.574-1.045,1.167-2.077,1.778-3.095
					c1.216-2.04,2.516-4.025,3.889-5.941c-0.938,2.164-1.78,4.354-2.528,6.572c-0.377,1.107-0.732,2.22-1.065,3.337
					c-0.331,1.111-0.653,2.249-0.921,3.339l-1.907-1.922l5.926-2.074l4.954-1.734l-3.202,3.968c-1.44,1.785-2.813,3.741-4.157,5.689
					C267.881,303.589,266.564,305.572,265.268,307.571z"/>
			</g>
			<g>
				<path style="fill:#1D3244;" d="M187.162,250.311c2.399,1.356,4.653,3.004,6.741,4.882c1.051,0.934,2.03,1.96,2.964,3.045
					c0.938,1.083,1.764,2.279,2.536,3.535l0.002,0.003l-2.854,0.646v-4.885v-0.003l0.044-6.761l2.745,5.995
					c0.519,1.133,0.978,2.237,1.431,3.367c0.446,1.127,0.876,2.257,1.267,3.402c0.779,2.285,1.473,4.621,1.79,6.997
					c-0.804-2.253-1.941-4.335-3.151-6.365c-0.606-1.014-1.247-2.008-1.9-2.99c-0.653-0.976-1.333-1.96-2.017-2.879l2.79-0.766
					v0.003v4.885v7.048l-2.854-6.403l-0.001-0.003c-0.463-1.191-0.993-2.387-1.665-3.527c-0.666-1.14-1.399-2.264-2.229-3.326
					C191.158,254.077,189.272,252.075,187.162,250.311z"/>
			</g>
			<g>
				<path style="fill:#1D3244;" d="M144.753,320.024c0.486-2.392,0.94-4.81,0.984-7.237c0.063-2.425-0.227-4.84-0.886-7.22
					c-0.643-2.38-1.556-4.789-1.908-7.33c-0.359-2.537-0.167-5.092,0.303-7.556c-0.256,2.499-0.219,5.026,0.339,7.436
					c0.55,2.415,1.631,4.656,2.511,7.054c0.896,2.395,1.446,4.982,1.601,7.578c0.176,2.604-0.078,5.18-0.372,7.741L144.753,320.024z
					"/>
			</g>
			<g>
				<path style="fill:#1D3244;" d="M112.33,325.946c1.175-2.459,2.424-4.769,3.743-7.086c1.324-2.302,2.702-4.57,4.2-6.762
					c1.504-2.185,3.049-4.342,4.798-6.337c1.739-1.994,3.606-3.89,5.72-5.45c-1.899,1.816-3.479,3.9-4.923,6.054
					c-1.451,2.153-2.686,4.447-3.871,6.749c-1.18,2.308-2.236,4.681-3.231,7.07c-0.983,2.384-1.925,4.834-2.714,7.228
					L112.33,325.946z"/>
			</g>
			<g>
				<path style="fill:#1D3244;" d="M207.384,235.645c2.42-1.836,4.978-3.501,7.603-5.057c2.63-1.551,5.347-2.967,8.138-4.252
					c2.784-1.302,5.668-2.411,8.619-3.367c2.944-0.99,6.001-1.657,9.098-2.224l0.425,3.977c-2.913,0.212-5.858,0.513-8.762,1.149
					c-2.908,0.6-5.805,1.359-8.646,2.325c-2.846,0.948-5.659,2.04-8.413,3.28C212.697,232.721,209.99,234.086,207.384,235.645z"/>
			</g>
			<g>
				<path style="fill:#1D3244;" d="M336.39,262.543c0.735-2.541,1.32-5.346,1.761-8.086c0.447-2.762,0.739-5.557,0.898-8.365
					c0.174-2.81,0.162-5.634-0.013-8.458c-0.129-2.833-0.579-5.637-1.097-8.447c0.882,2.708,1.711,5.469,2.22,8.301
					c0.555,2.824,0.95,5.692,1.154,8.578c0.22,2.886,0.302,5.792,0.22,8.701c-0.086,2.931-0.28,5.778-0.734,8.809L336.39,262.543z"
					/>
			</g>
		</g>
	</g>
</g>
</svg>
